# xmcd
#
# Track frame offsets:
#	150
#	20385
#	48402
#	65547
#	91202
#	109016
#	136803
#	151447
#	182432
#	200774
#	217517
#	235379
#	260695
#	290695
#	310815
#
# Disc length: 4580 seconds
# Revision: 0
# Processed by: cddbd v1.5.2PL0 Copyright (c) Steve Scherf et al.
# Submitted via: dBpowerAMP V12.0
#
DISCID=d011e20f
DTITLE=Various Artist - Soul Togetherness 2015
DYEAR=2015
DGENRE=Soul
TTITLE0=Charlie Wilson - Hey Lover
TTITLE1=Opolopo Feat. Diane Charlemagne - Round and Round
TTITLE2=3 Winans Brothers Feat. The Clark Sisters - Dance (Louie Vega Latin Soul Mix) (Radio Edit)
TTITLE3=Paris Toon and Mothers Favourite Child Feat. Tanya Tiet - Reflections Of A Disco Ball
TTITLE4=Syleena Johnson - All This Way For Love
TTITLE5=JD73 - Believe In Love (Soulpersona Mix)
TTITLE6=Joe Buhdha Presents Terri Walker - Feel Right
TTITLE7=McCrei - Show Me (Nigel Lowis Remix)
TTITLE8=Lorraine Clarke-McGhie - Do You Know?
TTITLE9=Ashling Cole - Give It To You
TTITLE10=Aaron Parnell Brown - Somewere Around (Soul Talk Remix)
TTITLE11=Kenya - Let Me (Tom Glide Rework)
TTITLE12=Diplomats Of Soul Feat. Incognito and Vanessa Haynes - Sweet Power Your Embrace
TTITLE13=Creators - Just You and Me
TTITLE14=Los Charly's Orchestra Feat. Xantoné Blacq - All Around The World (Extended Version)
EXTD=
EXTT0=
EXTT1=
EXTT2=
EXTT3=
EXTT4=
EXTT5=
EXTT6=
EXTT7=
EXTT8=
EXTT9=
EXTT10=
EXTT11=
EXTT12=
EXTT13=
EXTT14=
PLAYORDER=
